<svg id="visual" viewBox="0 0 900 600" width="900" height="600" xmlns="http://www.w3.org/2000/svg" xmlns:xlink="http://www.w3.org/1999/xlink" version="1.1"><rect x="0" y="0" width="900" height="600" fill="#002233"></rect><path d="M0 394L25 388.7C50 383.3 100 372.7 150 402.7C200 432.7 250 503.3 300 526C350 548.7 400 523.3 450 490.5C500 457.7 550 417.3 600 407.5C650 397.7 700 418.3 750 438.3C800 458.3 850 477.7 875 487.3L900 497L900 601L875 601C850 601 800 601 750 601C700 601 650 601 600 601C550 601 500 601 450 601C400 601 350 601 300 601C250 601 200 601 150 601C100 601 50 601 25 601L0 601Z" fill="#0066FF" stroke-linecap="round" stroke-linejoin="miter"></path></svg>